<svg data-v-423bf9ae="" xmlns="http://www.w3.org/2000/svg" viewBox="0 0 527 90" class="iconLeft"><!----><!----><!----><g data-v-423bf9ae="" id="11947356-73be-472e-be68-685b2babcc0a" fill="white" transform="matrix(5.830903811703725,0,0,5.830903811703725,153.04704224718884,12.551021672677557)"><path d="M2.45 10.50L3.30 5.95L8.01 5.95L8.25 4.76L3.54 4.76L4.14 1.61L9.55 1.61L9.79 0.42L3.05 0.42L1.12 10.50ZM13.48 9.60C13.45 9.95 13.43 10.30 13.62 10.50L14.90 10.50C14.69 10.23 14.63 9.76 14.78 9.02L15.40 5.82C15.75 3.99 15.06 3.01 13.12 3.01C11.72 3.01 10.32 3.53 9.63 5.21L10.78 5.47C11.20 4.52 11.89 4.02 12.80 4.02C13.76 4.02 14.41 4.44 14.18 5.57L14.13 5.85C13.73 6.02 12.85 6.16 12.07 6.23C10.42 6.38 9.06 7.01 8.75 8.58C8.47 10.07 9.48 10.71 10.82 10.71C11.69 10.71 12.60 10.42 13.48 9.60ZM13.61 8.54C13.13 9.03 12.14 9.70 11.20 9.70C10.53 9.70 9.91 9.45 10.08 8.53C10.28 7.53 11.21 7.36 12.01 7.24C12.74 7.13 13.58 6.97 13.94 6.82ZM16.20 10.50L17.46 10.50L18.05 7.35L18.63 7.35C19.19 7.35 19.60 7.60 19.85 8.26L20.62 10.50L22.09 10.50L21.21 8.08C20.90 7.36 20.44 6.92 19.94 6.79L19.95 6.73C20.52 6.59 21 6.13 21.50 5.29C21.81 4.76 21.92 4.38 22.58 4.38L22.93 4.38L23.16 3.22L22.90 3.22C22.09 3.22 21.59 3.26 21.06 3.95C20.89 4.17 20.29 5.24 19.96 5.63C19.50 6.20 19.11 6.30 18.69 6.30L18.24 6.30L19.39 0.42L18.13 0.42ZM29.40 8.29L28.25 8.04C27.79 9.13 26.85 9.66 26.00 9.66C24.95 9.66 24.09 8.93 24.33 7.18L26.85 7.18C28.35 7.18 29.72 6.72 29.74 5.05C29.74 4.17 29.01 3.01 27.20 3.01C25.19 3.01 23.60 4.45 23.13 6.86C22.67 9.27 23.70 10.71 25.72 10.71C27.30 10.71 28.66 9.91 29.40 8.29ZM27.01 4.06C27.80 4.06 28.55 4.41 28.52 5.10C28.49 5.92 27.93 6.17 27.03 6.17L24.56 6.17C25.07 4.69 26.14 4.06 27.01 4.06ZM31.42 10.50L32.16 6.57C32.42 5.15 33.22 4.20 34.43 4.20C34.86 4.20 35.08 4.31 35.32 4.51L35.92 3.40C35.63 3.14 35.27 3.01 34.71 3.01C33.80 3.01 33.08 3.50 32.44 4.48L32.68 3.22L31.54 3.22L30.16 10.50ZM43.39 10.50C46.63 10.50 48.55 8.58 49.17 5.43C49.78 2.18 48.41 0.42 45.16 0.42L42.03 0.42L40.10 10.50ZM43.12 1.61L44.90 1.61C47.11 1.61 48.34 2.56 47.80 5.42C47.29 8.04 45.92 9.32 43.46 9.32L41.64 9.32ZM56.13 8.29L54.98 8.04C54.52 9.13 53.58 9.66 52.72 9.66C51.67 9.66 50.82 8.93 51.06 7.18L53.58 7.18C55.08 7.18 56.45 6.72 56.46 5.05C56.46 4.17 55.73 3.01 53.93 3.01C51.91 3.01 50.33 4.45 49.85 6.86C49.39 9.27 50.43 10.71 52.44 10.71C54.03 10.71 55.38 9.91 56.13 8.29ZM53.73 4.06C54.53 4.06 55.27 4.41 55.24 5.10C55.22 5.92 54.66 6.17 53.76 6.17L51.28 6.17C51.80 4.69 52.86 4.06 53.73 4.06ZM59.96 10.50L64.09 3.22L62.83 3.22L59.64 9.04L58.73 3.22L57.44 3.22L58.81 10.50Z"></path></g><!----><g data-v-423bf9ae="" id="a5bcd3c2-a2d0-4d69-8d65-f73dad5e87cf" transform="matrix(1.5628796993288079,0,0,1.5628796993288079,-7.603227541175954,-32.82047368590497)" stroke="none" fill="white"><path d="M94.308 74.492V47.215c0-2.262-1.818-4.094-4.06-4.094H76.384V21h-9.127L55.752 43.803v30.69c0 2.26 1.818 4.093 4.06 4.093h30.436c2.242 0 4.06-1.832 4.06-4.094zm-50.752 0V47.215c0-2.262-1.818-4.094-4.06-4.094H25.632V21h-9.127L5 43.803v30.69c0 2.26 1.818 4.093 4.06 4.093h30.436c2.242 0 4.06-1.832 4.06-4.094z"></path></g><!----></svg>